<svg xmlns="http://www.w3.org/2000/svg" width="1269.153" height="1468" viewBox="0 0 1269.153 1468">
  <title>cr-api-logo</title>
  <g>
    <g>
      <polygon points="1235.153 232.83 940.633 232.83 636 34 635 34.66 635 1433.497 1234 1132 1235.153 232.83" fill="#f20042"/>
      <polygon points="334.923 232.83 34.847 232.83 34 1134 634 1434 635 1433.497 635 34.66 334.923 232.83" fill="#2b73ff"/>
    </g>
    <g>
      <polygon points="636 34 334.923 232.83 34.847 232.83 34 1134 634 1434 1234 1132 1235.153 232.83 940.633 232.83 636 34" fill="none" stroke="#000" stroke-linejoin="round" stroke-width="68"/>
      <path d="M636.219,115.345,903.467,289.774a67.993,67.993,0,0,0,37.166,11.056h226.433l-1.012,789.242L633.9,1357.923l-531.86-265.93.744-791.163H334.924A68,68,0,0,0,372.4,289.573L636.219,115.345M636,34,334.924,232.83H34.847L34,1134l600,300,600-302,1.153-899.17H940.633L636,34Z" fill="#ffbf00"/>
    </g>
    <g>
      <path d="M635.121,1072.6v51.6L343.586,962.95v-9.46l291.535-68.369v51.6l-43,9.89v102.338ZM462.265,977.569l82.128,45.15v-64.5Z" fill="#fff"/>
      <path d="M444.2,617.231c52.459,8.17,95.459,57.62,95.459,110.509v57.189l47.729,7.739h47.729v55.47L396.045,810.3H348.316V697.64C348.316,644.751,391.316,608.632,444.2,617.231Zm0,47.73c-26.659-4.3-48.159,13.76-48.159,39.989v57.619l95.889,14.62V720C491.934,693.771,470.435,668.831,444.2,664.961Z" fill="#fff"/>
      <path d="M396.045,486.513v47.729H348.316V390.624h47.729v48.159l191.347,30.1V420.724h47.729V564.341H587.392V516.612Z" fill="#fff"/>
    </g>
    <g>
      <path d="M678.118,1047.728V945.389l-43-9.889V883.9l291.535,68.369v9.46L635.119,1122.976v-51.6ZM725.848,957v64.5l82.128-45.149Z"/>
      <path d="M921.925,696.419V809.078H874.2L635.119,846.917V791.448h47.73l47.728-7.74V726.519c0-52.889,43-102.338,95.459-110.508C878.925,607.411,921.925,643.53,921.925,696.419Zm-143.618,22.36v57.189L874.2,761.349v-57.62c0-26.229-21.5-44.289-48.159-39.989C799.806,667.61,778.307,692.55,778.307,718.779Z"/>
      <path d="M682.849,515.391v47.73h-47.73V419.5h47.73v48.159l191.346-30.1V389.4h47.73V533.021H874.2V485.292Z"/>
    </g>
  </g>
</svg>
