<svg xmlns="http://www.w3.org/2000/svg" xmlns:xlink="http://www.w3.org/1999/xlink" width="1299" height="327" viewBox="0 0 1299 327">
  <defs>
    <clipPath id="a" transform="translate(-8.622)">
      <rect x="57.278" y="47.843" width="200" height="231.314" fill="none"/>
    </clipPath>
    <clipPath id="b" transform="translate(-8.622)">
      <rect y="5.986" width="314.713" height="314.713" fill="none"/>
    </clipPath>
  </defs>
  <title>royaleapi-bg-light</title>
  <g>
    <g>
      <g clip-path="url(#a)">
        <polygon points="243.172 84.507 196.828 84.507 148.892 53.22 148.734 53.324 148.734 273.44 242.991 225.997 243.172 84.507" fill="#f20042"/>
        <polygon points="101.527 84.507 54.321 84.507 54.187 226.312 148.577 273.519 148.734 273.44 148.734 53.324 101.527 84.507" fill="#2b73ff"/>
        <polygon points="148.904 53.22 101.533 84.507 54.321 84.507 54.187 226.312 148.589 273.519 242.991 225.997 243.172 84.507 196.834 84.507 148.904 53.22" fill="none" stroke="#000" stroke-linejoin="round" stroke-width="10.7"/>
        <g clip-path="url(#b)">
          <path d="M157.54,66.02l42.052,27.448a10.7,10.7,0,0,0,5.849,1.739H241.07L240.911,219.4l-83.736,42.148L73.485,219.7,73.6,95.207H110.13a10.7,10.7,0,0,0,5.9-1.771L157.54,66.02m-.014-12.8L110.155,84.507H62.943l-.134,141.805,94.4,47.207L251.613,226l.181-141.49H205.456Z" transform="translate(-8.622)" fill="#ffbf00"/>
          <path d="M157.514,216.717v8.149l-45.948-25.414v-1.491l45.948-10.775v8.15l-6.924,1.556V213Zm-27.243-14.954,12.923,7.1V198.719Z" transform="translate(-8.622)" fill="#fff"/>
          <path d="M127.386,145.062c8.255,1.286,15.022,9.067,15.022,17.389v8.958l7.51,1.218h7.6v8.912l-37.646-6.08h-7.516V157.715c0-8.323,6.767-14.006,15.089-12.653m-.106,7.5a6.274,6.274,0,0,0-7.587,6.3v9.077l15.106,2.3v-9.01a9.1,9.1,0,0,0-7.519-8.67" transform="translate(-8.622)" fill="#fff"/>
          <polygon points="111.284 124.503 111.284 132.029 103.731 132.029 103.731 109.369 111.284 109.369 111.284 116.948 141.339 121.684 141.339 114.09 148.892 114.09 148.892 136.749 141.339 136.749 141.339 129.239 111.284 124.503" fill="#fff"/>
          <path d="M164.123,212.8V196.7l-6.767-1.557v-8.149L203.3,197.77v1.49l-45.948,25.414v-8.149Zm7.553-14.276v10.149l12.923-7.1Z" transform="translate(-8.622)"/>
          <path d="M202.518,157.52V175.3h-7.565l-37.439,6.079v-8.912h7.474l7.475-1.243v-8.967c0-8.322,6.766-16.1,15.021-17.389,8.322-1.353,15.088,4.33,15.088,12.653m-22.556,3.459v9.069l15.106-2.3V158.67a6.274,6.274,0,0,0-7.587-6.3,9.1,9.1,0,0,0-7.519,8.67" transform="translate(-8.622)"/>
          <polygon points="156.288 129.097 156.288 136.592 148.734 136.592 148.734 113.933 156.288 113.933 156.288 121.511 186.343 116.774 186.343 109.212 193.896 109.212 193.896 131.871 186.343 131.871 186.343 124.361 156.288 129.097"/>
        </g>
      </g>
      <g>
        <path d="M381.386,213.911l-26.249,4.35-22.649-36.6h-7.05v35.548h-25.5v-103.5h36.148c25.049,0,39.749,11.4,39.749,32.7,0,14.249-6.9,24-19.2,29.4Zm-47.849-80.847h-8.25v30.149h7.95c10.95,0,17.4-5.4,17.4-15.3C350.637,138.314,344.637,133.064,333.537,133.064Z" transform="translate(-8.622)"/>
        <path d="M419.326,218.711c-20.249,0-35.1-14.549-35.1-38.1s15-38.4,35.249-38.4c20.4,0,35.4,14.7,35.4,38.249S439.725,218.711,419.326,218.711Zm.15-57.9c-8.7,0-13.349,7.65-13.349,19.65,0,11.849,4.8,19.949,13.349,19.949,8.7,0,13.5-7.95,13.5-19.8S428.176,160.813,419.476,160.813Z" transform="translate(-8.622)"/>
        <path d="M505.858,218.711c-6.6,19.2-15.6,25.8-31.649,25.8a33.872,33.872,0,0,1-8.55-.9l-2.85-18.148a27.02,27.02,0,0,0,9,1.2c5.1,0,9.6-1.949,12-7.049l.9-2.25-26.7-71.847,24.3-2.85,14.25,46.349,13.5-45.3h21.9Z" transform="translate(-8.622)"/>
        <path d="M579.636,217.211l-1.5-9.149c-6,6.3-13.05,10.649-23.1,10.649-11.7,0-19.949-7.05-19.949-20.4,0-17.25,13.2-25.349,42-27.9v-1.35c0-6.45-3.6-9.3-11.1-9.3-8.25,0-15.9,2.1-23.7,5.55l-2.7-17.1a76.136,76.136,0,0,1,29.85-5.7c20.249,0,30.3,6.75,30.3,25.5v49.2Zm-2.55-35.849c-15.449,2.4-19.649,7.5-19.649,13.95,0,4.65,2.85,7.2,7.05,7.2,4.349,0,8.55-1.95,12.6-5.55Z" transform="translate(-8.622)"/>
        <path d="M615.187,217.211v-104.7l22.8-3.6v108.3Z" transform="translate(-8.622)"/>
        <path d="M717.182,186.162h-44.1c1.2,11.55,8.1,16.05,18,16.05,8.1,0,16.049-3,24.148-7.65l2.25,15.9a53.271,53.271,0,0,1-29.248,8.25c-22.049,0-37.8-11.7-37.8-37.948,0-24,14.7-38.549,34.648-38.549,22.5,0,32.549,16.8,32.549,38.1A29.762,29.762,0,0,1,717.182,186.162Zm-32.7-29.248c-6.3,0-10.8,5.549-11.549,16.8h23.1C695.284,162.613,691.384,156.914,684.484,156.914Z" transform="translate(-8.622)"/>
        <path d="M799.53,218.261l-7.8-22.5H756.182l-7.2,21.449H723.933l37.2-103.946h28.2l36,100.8Zm-25.649-78.6-11.7,36h23.4Z" transform="translate(-8.622)"/>
        <path d="M868.981,182.862h-6.6v34.349h-25.65v-103.5h33.3c25.2,0,40.649,11.25,40.649,33.749C910.68,170.863,894.03,182.862,868.981,182.862Zm-.45-49.8h-6.449v30.449h6c11.4,0,17.7-4.95,17.7-15.6C885.781,138.014,879.931,133.064,868.531,133.064Z" transform="translate(-8.622)"/>
        <path d="M923.432,217.211v-103.5H949.08v103.5Z" transform="translate(-8.622)"/>
        <path d="M970.53,217.211V205.062h9v12.149Z" transform="translate(-8.622)"/>
        <path d="M1028.423,218.711c-17.249,0-31.049-13.5-31.049-36.748,0-23.4,13.949-36.749,31.5-36.749a37.654,37.654,0,0,1,22.8,7.8l-1.351,7.2c-7.049-6-13.649-8.849-21.749-8.849-15,0-23.848,12.449-23.848,30.6,0,17.7,8.549,30.6,24.449,30.6,7.649,0,14.7-2.7,22.049-9l.9,6.6A35.816,35.816,0,0,1,1028.423,218.711Z" transform="translate(-8.622)"/>
        <path d="M1096.666,218.711c-17.55,0-31.049-13.5-31.049-36.748,0-23.4,13.949-36.749,31.049-36.749,17.7,0,31.2,13.349,31.2,36.749C1127.864,205.212,1113.915,218.711,1096.666,218.711Zm0-67.347c-15.3,0-23.7,12.449-23.7,30.6,0,17.7,8.549,30.6,23.7,30.6,15.3,0,23.849-12.3,23.849-30.6C1120.515,164.263,1111.965,151.364,1096.666,151.364Z" transform="translate(-8.622)"/>
        <path d="M1240.362,217.211V168.163c0-10.65-4.649-16.5-14.848-16.5-7.5,0-15.45,4.35-24.3,12.449v53.1h-6.9V168.163c0-10.65-4.649-16.5-14.849-16.5-7.5,0-15.6,4.35-24.3,12.3v53.248h-7.05v-70.5h5.1l1.8,10.2c8.4-7.2,16.049-11.7,25.2-11.7,11.1,0,17.4,4.5,19.8,12.749,8.849-7.8,16.8-12.749,26.4-12.749,14.55,0,21,8.1,21,22.05v49.947Z" transform="translate(-8.622)"/>
      </g>
    </g>
    <rect width="1299" height="327" fill="none"/>
  </g>
</svg>
