<svg xmlns="http://www.w3.org/2000/svg" width="2000" height="2000" viewBox="0 0 2000 2000">
  <title>cr-api-logo-pad</title>
  <g>
    <g>
      <g>
        <polygon points="1600.365 499.33 1305.845 499.33 1001.212 300.5 1000.212 301.16 1000.212 1699.997 1599.212 1398.5 1600.365 499.33" fill="#f20042"/>
        <polygon points="700.135 499.33 400.059 499.33 399.212 1400.5 999.212 1700.5 1000.212 1699.997 1000.212 301.16 700.135 499.33" fill="#2b73ff"/>
      </g>
      <g>
        <polygon points="1001.212 300.5 700.135 499.33 400.059 499.33 399.212 1400.5 999.212 1700.5 1599.212 1398.5 1600.365 499.33 1305.845 499.33 1001.212 300.5" fill="none" stroke="#000" stroke-linejoin="round" stroke-width="68"/>
        <path d="M1001.431,381.845l267.247,174.429a68,68,0,0,0,37.167,11.056h226.432l-1.011,789.242L999.11,1624.423l-531.859-265.93L468,567.33h232.14a68,68,0,0,0,37.473-11.257l263.823-174.228m-.219-81.345L700.135,499.33H400.059l-.847,901.17,600,300,600-302,1.153-899.17h-294.52L1001.212,300.5Z" fill="#ffbf00"/>
      </g>
      <g>
        <path d="M1000.333,1339.1v51.6L708.8,1229.45v-9.46l291.535-68.369v51.6l-43,9.89v102.338Zm-172.856-95.029,82.127,45.15v-64.5Z" fill="#fff"/>
        <path d="M809.416,883.731c52.459,8.17,95.459,57.62,95.459,110.509v57.189l47.729,7.739h47.729v55.47L761.257,1076.8h-47.73V964.14C713.527,911.251,756.527,875.132,809.416,883.731Zm0,47.73c-26.659-4.3-48.159,13.76-48.159,39.989v57.619l95.889,14.62V986.5C857.146,960.271,835.646,935.331,809.416,931.461Z" fill="#fff"/>
        <path d="M761.257,753.013v47.729h-47.73V657.124h47.73v48.159l191.347,30.1V687.224h47.729V830.841H952.6V783.112Z" fill="#fff"/>
      </g>
      <g>
        <path d="M1043.33,1314.228V1211.889l-43-9.889v-51.6l291.535,68.369v9.46l-291.535,161.247v-51.6Zm47.73-90.729V1288l82.128-45.149Z"/>
        <path d="M1287.137,962.919v112.659h-47.73l-239.076,37.839v-55.469h47.73l47.728-7.74V993.019c0-52.889,43-102.338,95.459-110.508C1244.137,873.911,1287.137,910.03,1287.137,962.919Zm-143.618,22.36v57.189l95.888-14.619v-57.62c0-26.229-21.5-44.289-48.159-39.989C1165.018,934.11,1143.519,959.05,1143.519,985.279Z"/>
        <path d="M1048.061,781.891v47.73h-47.73V686h47.73v48.159l191.346-30.1V655.9h47.73V799.521h-47.73V751.792Z"/>
      </g>
    </g>
    <rect width="2000" height="2000" fill="none"/>
  </g>
</svg>
